<svg id="Lager_1" data-name="Lager 1" xmlns="http://www.w3.org/2000/svg" viewBox="0 0 347.87 483.68"><defs><style>.cls-1{fill:#dadada;stroke:#1d1d1b;stroke-miterlimit:10;stroke-width:0.25px;}</style></defs><path class="cls-1" d="M304.57,119.05A173.81,173.81,0,1,0,478.38,292.86,173.81,173.81,0,0,0,304.57,119.05Zm99.48,272.09a104.2,104.2,0,0,1-44.73,28.75,104.76,104.76,0,0,1-53.56,12,138.4,138.4,0,0,1-70.15-19l-28.14-21.74c-.34-.34-.67-.7-1-1.05l-.17-.14a138.83,138.83,0,0,1-35.74-61.33q-2.49-18.48-5-36.95a104.76,104.76,0,0,1,12-53.56,104.27,104.27,0,0,1,28.74-44.73A104.12,104.12,0,0,1,251,164.64c1-.53,2-1,3-1.53l1-.49c.67-.32,1.34-.64,2-.94l1.3-.56c.59-.26,1.19-.52,1.78-.76l1.43-.57,1.68-.65,1.52-.55,1.61-.56,1.6-.52,1.56-.49,1.66-.48,1.52-.42,1.73-.44,1.48-.36,1.79-.4,1.43-.29,1.86-.35,1.38-.24,1.94-.31,1.32-.18c.67-.09,1.34-.18,2-.25l1.25-.13c.7-.08,1.41-.15,2.12-.21l1.15-.08c.74,0,1.49-.11,2.23-.14l1,0c.8,0,1.6-.07,2.41-.09h.74c.9,0,1.79,0,2.7,0,1.47,0,2.95,0,4.43.08a138.32,138.32,0,0,1,70.16,19l28.13,21.74a138.91,138.91,0,0,1,35.75,61.33q2.47,18.48,5,37c.06,1.48.08,3,.07,4.43a104.22,104.22,0,0,1-12,50.31A104.27,104.27,0,0,1,404.05,391.14Z" transform="translate(-130.64 -118.92)"/><path class="cls-1" d="M359.32,419.89a104.76,104.76,0,0,1-53.56,12,138.4,138.4,0,0,1-70.15-19l-11.24-8.68-53.51-.31L304.57,602.38,437,405.39l-48.67-.27A103.69,103.69,0,0,1,359.32,419.89Z" transform="translate(-130.64 -118.92)"/></svg>